<svg xmlns="http://www.w3.org/2000/svg" xmlns:xlink="http://www.w3.org/1999/xlink" width="300" zoomAndPan="magnify" viewBox="0 0 224.87999 74.999997" height="100" preserveAspectRatio="xMidYMid meet" version="1.0"><defs><g/><clipPath id="aa6cf9d499"><path d="M 0 0.0195312 L 224.761719 0.0195312 L 224.761719 74.980469 L 0 74.980469 Z M 0 0.0195312 " clip-rule="nonzero"/></clipPath><clipPath id="247560cf02"><path d="M 0 0.0195312 L 74.960938 0.0195312 L 74.960938 74.980469 L 0 74.980469 Z M 0 0.0195312 " clip-rule="nonzero"/></clipPath><clipPath id="9e82c84cd6"><path d="M 37.480469 0.0195312 C 16.78125 0.0195312 0 16.800781 0 37.5 C 0 58.199219 16.78125 74.980469 37.480469 74.980469 C 58.179688 74.980469 74.960938 58.199219 74.960938 37.5 C 74.960938 16.800781 58.179688 0.0195312 37.480469 0.0195312 " clip-rule="nonzero"/></clipPath></defs><g clip-path="url(#aa6cf9d499)"><path fill="#ffffff" d="M 0 0.0195312 L 224.878906 0.0195312 L 224.878906 82.476562 L 0 82.476562 Z M 0 0.0195312 " fill-opacity="1" fill-rule="nonzero"/><path fill="#ffffff" d="M 0 0.0195312 L 224.878906 0.0195312 L 224.878906 74.980469 L 0 74.980469 Z M 0 0.0195312 " fill-opacity="1" fill-rule="nonzero"/><path fill="#ffffff" d="M 0 0.0195312 L 224.878906 0.0195312 L 224.878906 74.980469 L 0 74.980469 Z M 0 0.0195312 " fill-opacity="1" fill-rule="nonzero"/></g><g clip-path="url(#247560cf02)"><g clip-path="url(#9e82c84cd6)"><path fill="#c48975" d="M 0 0.0195312 L 74.960938 0.0195312 L 74.960938 74.980469 L 0 74.980469 Z M 0 0.0195312 " fill-opacity="1" fill-rule="nonzero"/></g></g><g fill="#ffffff" fill-opacity="1"><g transform="translate(6.102212, 53.616395)"><g><path d="M 14.453125 -33.21875 L 17.21875 -33.21875 L 31.015625 0 L 27.546875 0 L 23.25 -10.390625 L 8.328125 -10.390625 L 4.0625 0 L 0.5625 0 Z M 22.5 -12.953125 L 15.8125 -29.375 L 9.03125 -12.953125 Z M 22.5 -12.953125 "/></g></g></g><g fill="#ffffff" fill-opacity="1"><g transform="translate(37.717358, 53.616395)"><g><path d="M 29.140625 -8.5625 C 29.140625 -7.3125 28.890625 -6.164062 28.390625 -5.125 C 27.890625 -4.082031 27.21875 -3.175781 26.375 -2.40625 C 25.539062 -1.644531 24.5625 -1.050781 23.4375 -0.625 C 22.3125 -0.207031 21.109375 0 19.828125 0 L 4.15625 0 L 4.15625 -33.21875 L 20.15625 -33.21875 C 21.3125 -33.21875 22.359375 -32.96875 23.296875 -32.46875 C 24.234375 -31.96875 25.03125 -31.316406 25.6875 -30.515625 C 26.34375 -29.722656 26.847656 -28.820312 27.203125 -27.8125 C 27.554688 -26.800781 27.734375 -25.78125 27.734375 -24.75 C 27.734375 -23.0625 27.3125 -21.523438 26.46875 -20.140625 C 25.632812 -18.753906 24.46875 -17.71875 22.96875 -17.03125 C 24.875 -16.46875 26.378906 -15.421875 27.484375 -13.890625 C 28.585938 -12.367188 29.140625 -10.59375 29.140625 -8.5625 Z M 25.875 -9.125 C 25.875 -9.9375 25.734375 -10.722656 25.453125 -11.484375 C 25.171875 -12.242188 24.769531 -12.910156 24.25 -13.484375 C 23.738281 -14.066406 23.128906 -14.535156 22.421875 -14.890625 C 21.722656 -15.253906 20.96875 -15.4375 20.15625 -15.4375 L 7.4375 -15.4375 L 7.4375 -2.859375 L 19.828125 -2.859375 C 20.671875 -2.859375 21.457031 -3.03125 22.1875 -3.375 C 22.925781 -3.71875 23.566406 -4.175781 24.109375 -4.75 C 24.660156 -5.320312 25.09375 -5.988281 25.40625 -6.75 C 25.71875 -7.519531 25.875 -8.3125 25.875 -9.125 Z M 7.4375 -30.359375 L 7.4375 -18.109375 L 18.859375 -18.109375 C 19.660156 -18.109375 20.410156 -18.28125 21.109375 -18.625 C 21.816406 -18.96875 22.421875 -19.414062 22.921875 -19.96875 C 23.421875 -20.53125 23.8125 -21.175781 24.09375 -21.90625 C 24.375 -22.644531 24.515625 -23.421875 24.515625 -24.234375 C 24.515625 -25.078125 24.378906 -25.867188 24.109375 -26.609375 C 23.847656 -27.359375 23.472656 -28.003906 22.984375 -28.546875 C 22.503906 -29.097656 21.9375 -29.535156 21.28125 -29.859375 C 20.625 -30.191406 19.910156 -30.359375 19.140625 -30.359375 Z M 7.4375 -30.359375 "/></g></g></g><g fill="#a0937d" fill-opacity="1"><g transform="translate(76.110592, 36.01651)"><g><path d="M 6.234375 -16.015625 L 8.984375 -16.015625 L 15.078125 0 L 11.875 0 L 10.375 -4 L 4.78125 -4 L 3.3125 0 L 0.109375 0 Z M 9.8125 -6.1875 L 7.609375 -12.484375 L 5.296875 -6.1875 Z M 9.8125 -6.1875 "/></g></g></g><g fill="#a0937d" fill-opacity="1"><g transform="translate(91.269711, 36.01651)"><g><path d="M 1.375 0 L 1.375 -11.828125 L 4.40625 -11.828125 L 4.40625 0 Z M 1.375 -13.46875 L 1.375 -16.46875 L 4.40625 -16.46875 L 4.40625 -13.46875 Z M 1.375 -13.46875 "/></g></g></g><g fill="#a0937d" fill-opacity="1"><g transform="translate(97.022058, 36.01651)"><g><path d="M 19.75 0 L 16.71875 0 L 16.71875 -6.640625 C 16.71875 -7.585938 16.554688 -8.273438 16.234375 -8.703125 C 15.910156 -9.140625 15.460938 -9.359375 14.890625 -9.359375 C 14.285156 -9.359375 13.71875 -9.128906 13.1875 -8.671875 C 12.664062 -8.210938 12.296875 -7.613281 12.078125 -6.875 L 12.078125 0 L 9.046875 0 L 9.046875 -6.640625 C 9.046875 -7.585938 8.882812 -8.273438 8.5625 -8.703125 C 8.238281 -9.140625 7.789062 -9.359375 7.21875 -9.359375 C 6.632812 -9.359375 6.070312 -9.132812 5.53125 -8.6875 C 5 -8.238281 4.625 -7.644531 4.40625 -6.90625 L 4.40625 0 L 1.375 0 L 1.375 -11.828125 L 4.109375 -11.828125 L 4.109375 -9.640625 C 4.546875 -10.398438 5.144531 -10.988281 5.90625 -11.40625 C 6.664062 -11.820312 7.53125 -12.03125 8.5 -12.03125 C 9.5 -12.03125 10.269531 -11.785156 10.8125 -11.296875 C 11.351562 -10.816406 11.695312 -10.222656 11.84375 -9.515625 C 12.320312 -10.328125 12.929688 -10.945312 13.671875 -11.375 C 14.410156 -11.8125 15.253906 -12.03125 16.203125 -12.03125 C 16.921875 -12.03125 17.515625 -11.894531 17.984375 -11.625 C 18.453125 -11.351562 18.8125 -11 19.0625 -10.5625 C 19.320312 -10.125 19.5 -9.625 19.59375 -9.0625 C 19.695312 -8.507812 19.75 -7.945312 19.75 -7.375 Z M 19.75 0 "/></g></g></g><g fill="#a0937d" fill-opacity="1"><g transform="translate(118.023758, 36.01651)"><g><path d="M 6.859375 0.21875 C 5.910156 0.21875 5.050781 0.0546875 4.28125 -0.265625 C 3.519531 -0.585938 2.867188 -1.023438 2.328125 -1.578125 C 1.785156 -2.140625 1.363281 -2.785156 1.0625 -3.515625 C 0.769531 -4.253906 0.625 -5.03125 0.625 -5.84375 C 0.625 -6.6875 0.765625 -7.476562 1.046875 -8.21875 C 1.335938 -8.96875 1.753906 -9.625 2.296875 -10.1875 C 2.835938 -10.75 3.492188 -11.195312 4.265625 -11.53125 C 5.046875 -11.863281 5.914062 -12.03125 6.875 -12.03125 C 7.84375 -12.03125 8.707031 -11.863281 9.46875 -11.53125 C 10.226562 -11.195312 10.875 -10.75 11.40625 -10.1875 C 11.9375 -9.632812 12.34375 -8.988281 12.625 -8.25 C 12.90625 -7.519531 13.046875 -6.753906 13.046875 -5.953125 C 13.046875 -5.753906 13.039062 -5.566406 13.03125 -5.390625 C 13.019531 -5.210938 13 -5.0625 12.96875 -4.9375 L 3.828125 -4.9375 C 3.878906 -4.46875 3.992188 -4.050781 4.171875 -3.6875 C 4.347656 -3.332031 4.578125 -3.023438 4.859375 -2.765625 C 5.148438 -2.515625 5.476562 -2.320312 5.84375 -2.1875 C 6.207031 -2.050781 6.582031 -1.984375 6.96875 -1.984375 C 7.570312 -1.984375 8.140625 -2.128906 8.671875 -2.421875 C 9.203125 -2.710938 9.566406 -3.101562 9.765625 -3.59375 L 12.359375 -2.859375 C 11.921875 -1.960938 11.222656 -1.222656 10.265625 -0.640625 C 9.316406 -0.0664062 8.179688 0.21875 6.859375 0.21875 Z M 9.921875 -6.90625 C 9.847656 -7.789062 9.519531 -8.5 8.9375 -9.03125 C 8.363281 -9.570312 7.664062 -9.84375 6.84375 -9.84375 C 6.4375 -9.84375 6.054688 -9.769531 5.703125 -9.625 C 5.347656 -9.476562 5.035156 -9.273438 4.765625 -9.015625 C 4.492188 -8.765625 4.269531 -8.457031 4.09375 -8.09375 C 3.914062 -7.738281 3.816406 -7.34375 3.796875 -6.90625 Z M 9.921875 -6.90625 "/></g></g></g><g fill="#a0937d" fill-opacity="1"><g transform="translate(131.536128, 36.01651)"><g><path d="M 6.859375 0.21875 C 5.910156 0.21875 5.050781 0.0546875 4.28125 -0.265625 C 3.519531 -0.585938 2.867188 -1.023438 2.328125 -1.578125 C 1.785156 -2.140625 1.363281 -2.785156 1.0625 -3.515625 C 0.769531 -4.253906 0.625 -5.03125 0.625 -5.84375 C 0.625 -6.6875 0.765625 -7.476562 1.046875 -8.21875 C 1.335938 -8.96875 1.753906 -9.625 2.296875 -10.1875 C 2.835938 -10.75 3.492188 -11.195312 4.265625 -11.53125 C 5.046875 -11.863281 5.914062 -12.03125 6.875 -12.03125 C 7.84375 -12.03125 8.707031 -11.863281 9.46875 -11.53125 C 10.226562 -11.195312 10.875 -10.75 11.40625 -10.1875 C 11.9375 -9.632812 12.34375 -8.988281 12.625 -8.25 C 12.90625 -7.519531 13.046875 -6.753906 13.046875 -5.953125 C 13.046875 -5.753906 13.039062 -5.566406 13.03125 -5.390625 C 13.019531 -5.210938 13 -5.0625 12.96875 -4.9375 L 3.828125 -4.9375 C 3.878906 -4.46875 3.992188 -4.050781 4.171875 -3.6875 C 4.347656 -3.332031 4.578125 -3.023438 4.859375 -2.765625 C 5.148438 -2.515625 5.476562 -2.320312 5.84375 -2.1875 C 6.207031 -2.050781 6.582031 -1.984375 6.96875 -1.984375 C 7.570312 -1.984375 8.140625 -2.128906 8.671875 -2.421875 C 9.203125 -2.710938 9.566406 -3.101562 9.765625 -3.59375 L 12.359375 -2.859375 C 11.921875 -1.960938 11.222656 -1.222656 10.265625 -0.640625 C 9.316406 -0.0664062 8.179688 0.21875 6.859375 0.21875 Z M 9.921875 -6.90625 C 9.847656 -7.789062 9.519531 -8.5 8.9375 -9.03125 C 8.363281 -9.570312 7.664062 -9.84375 6.84375 -9.84375 C 6.4375 -9.84375 6.054688 -9.769531 5.703125 -9.625 C 5.347656 -9.476562 5.035156 -9.273438 4.765625 -9.015625 C 4.492188 -8.765625 4.269531 -8.457031 4.09375 -8.09375 C 3.914062 -7.738281 3.816406 -7.34375 3.796875 -6.90625 Z M 9.921875 -6.90625 "/></g></g></g><g fill="#a0937d" fill-opacity="1"><g transform="translate(145.048497, 36.01651)"><g/></g></g><g fill="#a0937d" fill-opacity="1"><g transform="translate(150.462474, 36.01651)"><g><path d="M 14.578125 -4.125 C 14.578125 -3.445312 14.441406 -2.851562 14.171875 -2.34375 C 13.898438 -1.832031 13.523438 -1.40625 13.046875 -1.0625 C 12.578125 -0.71875 12.03125 -0.453125 11.40625 -0.265625 C 10.78125 -0.0859375 10.113281 0 9.40625 0 L 1.671875 0 L 1.671875 -16.015625 L 10.25 -16.015625 C 10.800781 -16.015625 11.300781 -15.894531 11.75 -15.65625 C 12.207031 -15.414062 12.59375 -15.101562 12.90625 -14.71875 C 13.21875 -14.332031 13.460938 -13.894531 13.640625 -13.40625 C 13.816406 -12.925781 13.90625 -12.4375 13.90625 -11.9375 C 13.90625 -11.15625 13.707031 -10.421875 13.3125 -9.734375 C 12.914062 -9.046875 12.34375 -8.539062 11.59375 -8.21875 C 12.507812 -7.945312 13.234375 -7.457031 13.765625 -6.75 C 14.304688 -6.050781 14.578125 -5.175781 14.578125 -4.125 Z M 11.4375 -4.71875 C 11.4375 -5 11.382812 -5.269531 11.28125 -5.53125 C 11.1875 -5.800781 11.054688 -6.03125 10.890625 -6.21875 C 10.734375 -6.414062 10.539062 -6.570312 10.3125 -6.6875 C 10.082031 -6.800781 9.832031 -6.859375 9.5625 -6.859375 L 4.78125 -6.859375 L 4.78125 -2.640625 L 9.40625 -2.640625 C 9.695312 -2.640625 9.960938 -2.691406 10.203125 -2.796875 C 10.453125 -2.898438 10.664062 -3.046875 10.84375 -3.234375 C 11.03125 -3.421875 11.175781 -3.640625 11.28125 -3.890625 C 11.382812 -4.148438 11.4375 -4.425781 11.4375 -4.71875 Z M 4.78125 -13.359375 L 4.78125 -9.3125 L 8.9375 -9.3125 C 9.457031 -9.3125 9.898438 -9.492188 10.265625 -9.859375 C 10.640625 -10.222656 10.828125 -10.71875 10.828125 -11.34375 C 10.828125 -11.96875 10.65625 -12.457031 10.3125 -12.8125 C 9.976562 -13.175781 9.5625 -13.359375 9.0625 -13.359375 Z M 4.78125 -13.359375 "/></g></g></g><g fill="#a0937d" fill-opacity="1"><g transform="translate(165.802062, 36.01651)"><g><path d="M 1.359375 -16.46875 L 4.375 -16.46875 L 4.375 -3.796875 C 4.375 -3.359375 4.476562 -3.019531 4.6875 -2.78125 C 4.90625 -2.539062 5.207031 -2.421875 5.59375 -2.421875 C 5.769531 -2.421875 5.96875 -2.445312 6.1875 -2.5 C 6.40625 -2.5625 6.613281 -2.640625 6.8125 -2.734375 L 7.21875 -0.421875 C 6.8125 -0.234375 6.335938 -0.0859375 5.796875 0.015625 C 5.253906 0.128906 4.765625 0.1875 4.328125 0.1875 C 3.378906 0.1875 2.644531 -0.0625 2.125 -0.5625 C 1.613281 -1.070312 1.359375 -1.796875 1.359375 -2.734375 Z M 1.359375 -16.46875 "/></g></g></g><g fill="#a0937d" fill-opacity="1"><g transform="translate(172.953011, 36.01651)"><g><path d="M 4.609375 0.21875 C 4.035156 0.21875 3.5 0.125 3 -0.0625 C 2.5 -0.25 2.066406 -0.507812 1.703125 -0.84375 C 1.347656 -1.1875 1.066406 -1.582031 0.859375 -2.03125 C 0.660156 -2.476562 0.5625 -2.972656 0.5625 -3.515625 C 0.5625 -4.078125 0.6875 -4.59375 0.9375 -5.0625 C 1.1875 -5.539062 1.53125 -5.941406 1.96875 -6.265625 C 2.414062 -6.597656 2.945312 -6.859375 3.5625 -7.046875 C 4.175781 -7.234375 4.851562 -7.328125 5.59375 -7.328125 C 6.125 -7.328125 6.640625 -7.28125 7.140625 -7.1875 C 7.640625 -7.101562 8.085938 -6.976562 8.484375 -6.8125 L 8.484375 -7.484375 C 8.484375 -8.265625 8.257812 -8.863281 7.8125 -9.28125 C 7.375 -9.707031 6.71875 -9.921875 5.84375 -9.921875 C 5.207031 -9.921875 4.585938 -9.804688 3.984375 -9.578125 C 3.390625 -9.359375 2.773438 -9.03125 2.140625 -8.59375 L 1.21875 -10.515625 C 2.738281 -11.523438 4.378906 -12.03125 6.140625 -12.03125 C 7.835938 -12.03125 9.15625 -11.609375 10.09375 -10.765625 C 11.03125 -9.929688 11.5 -8.726562 11.5 -7.15625 L 11.5 -3.46875 C 11.5 -3.15625 11.554688 -2.929688 11.671875 -2.796875 C 11.785156 -2.660156 11.972656 -2.585938 12.234375 -2.578125 L 12.234375 0 C 11.722656 0.101562 11.273438 0.15625 10.890625 0.15625 C 10.328125 0.15625 9.890625 0.03125 9.578125 -0.21875 C 9.265625 -0.476562 9.070312 -0.816406 9 -1.234375 L 8.9375 -1.890625 C 8.40625 -1.203125 7.765625 -0.675781 7.015625 -0.3125 C 6.265625 0.0390625 5.460938 0.21875 4.609375 0.21875 Z M 5.453125 -1.984375 C 5.972656 -1.984375 6.460938 -2.070312 6.921875 -2.25 C 7.378906 -2.4375 7.734375 -2.679688 7.984375 -2.984375 C 8.316406 -3.234375 8.484375 -3.515625 8.484375 -3.828125 L 8.484375 -5.1875 C 8.117188 -5.320312 7.722656 -5.429688 7.296875 -5.515625 C 6.878906 -5.597656 6.476562 -5.640625 6.09375 -5.640625 C 5.3125 -5.640625 4.671875 -5.460938 4.171875 -5.109375 C 3.671875 -4.753906 3.421875 -4.304688 3.421875 -3.765625 C 3.421875 -3.253906 3.617188 -2.828125 4.015625 -2.484375 C 4.410156 -2.148438 4.890625 -1.984375 5.453125 -1.984375 Z M 5.453125 -1.984375 "/></g></g></g><g fill="#a0937d" fill-opacity="1"><g transform="translate(185.90143, 36.01651)"><g><path d="M 0.625 -5.90625 C 0.625 -6.738281 0.765625 -7.519531 1.046875 -8.25 C 1.335938 -8.988281 1.753906 -9.632812 2.296875 -10.1875 C 2.835938 -10.75 3.492188 -11.195312 4.265625 -11.53125 C 5.035156 -11.863281 5.898438 -12.03125 6.859375 -12.03125 C 8.148438 -12.03125 9.25 -11.75 10.15625 -11.1875 C 11.070312 -10.632812 11.753906 -9.90625 12.203125 -9 L 9.25 -8.09375 C 8.988281 -8.53125 8.648438 -8.863281 8.234375 -9.09375 C 7.816406 -9.332031 7.351562 -9.453125 6.84375 -9.453125 C 6.40625 -9.453125 5.992188 -9.363281 5.609375 -9.1875 C 5.234375 -9.019531 4.90625 -8.78125 4.625 -8.46875 C 4.351562 -8.164062 4.140625 -7.796875 3.984375 -7.359375 C 3.828125 -6.921875 3.75 -6.4375 3.75 -5.90625 C 3.75 -5.382812 3.828125 -4.90625 3.984375 -4.46875 C 4.148438 -4.03125 4.375 -3.648438 4.65625 -3.328125 C 4.9375 -3.015625 5.265625 -2.769531 5.640625 -2.59375 C 6.015625 -2.425781 6.414062 -2.34375 6.84375 -2.34375 C 7.382812 -2.34375 7.882812 -2.476562 8.34375 -2.75 C 8.800781 -3.019531 9.117188 -3.351562 9.296875 -3.75 L 12.25 -2.84375 C 11.84375 -1.9375 11.171875 -1.195312 10.234375 -0.625 C 9.304688 -0.0625 8.1875 0.21875 6.875 0.21875 C 5.914062 0.21875 5.050781 0.0546875 4.28125 -0.265625 C 3.519531 -0.597656 2.867188 -1.046875 2.328125 -1.609375 C 1.785156 -2.171875 1.363281 -2.820312 1.0625 -3.5625 C 0.769531 -4.3125 0.625 -5.09375 0.625 -5.90625 Z M 0.625 -5.90625 "/></g></g></g><g fill="#a0937d" fill-opacity="1"><g transform="translate(198.624258, 36.01651)"><g><path d="M 9.453125 0 L 6.03125 -5.125 L 4.40625 -3.515625 L 4.40625 0 L 1.375 0 L 1.375 -16.46875 L 4.40625 -16.46875 L 4.40625 -6.46875 L 9.140625 -11.796875 L 12.359375 -11.796875 L 7.96875 -6.796875 L 12.6875 0 Z M 9.453125 0 "/></g></g></g><g fill="#a0937d" fill-opacity="1"><g transform="translate(76.110592, 55.524672)"><g><path d="M 0.65625 -5.609375 C 0.65625 -6.265625 0.769531 -6.921875 1 -7.578125 C 1.238281 -8.242188 1.578125 -8.832031 2.015625 -9.34375 C 2.460938 -9.863281 3.015625 -10.285156 3.671875 -10.609375 C 4.328125 -10.941406 5.066406 -11.109375 5.890625 -11.109375 C 6.878906 -11.109375 7.722656 -10.882812 8.421875 -10.4375 C 9.128906 -9.988281 9.644531 -9.410156 9.96875 -8.703125 L 9.125 -8.171875 C 8.945312 -8.535156 8.726562 -8.84375 8.46875 -9.09375 C 8.21875 -9.34375 7.945312 -9.539062 7.65625 -9.6875 C 7.363281 -9.84375 7.0625 -9.953125 6.75 -10.015625 C 6.4375 -10.085938 6.132812 -10.125 5.84375 -10.125 C 5.175781 -10.125 4.585938 -9.988281 4.078125 -9.71875 C 3.566406 -9.457031 3.132812 -9.109375 2.78125 -8.671875 C 2.4375 -8.234375 2.175781 -7.738281 2 -7.1875 C 1.832031 -6.644531 1.75 -6.097656 1.75 -5.546875 C 1.75 -4.929688 1.851562 -4.34375 2.0625 -3.78125 C 2.269531 -3.21875 2.554688 -2.722656 2.921875 -2.296875 C 3.296875 -1.867188 3.734375 -1.523438 4.234375 -1.265625 C 4.742188 -1.015625 5.289062 -0.890625 5.875 -0.890625 C 6.1875 -0.890625 6.503906 -0.925781 6.828125 -1 C 7.160156 -1.082031 7.476562 -1.207031 7.78125 -1.375 C 8.09375 -1.550781 8.378906 -1.765625 8.640625 -2.015625 C 8.898438 -2.265625 9.117188 -2.570312 9.296875 -2.9375 L 10.1875 -2.46875 C 10.007812 -2.0625 9.757812 -1.695312 9.4375 -1.375 C 9.125 -1.0625 8.769531 -0.796875 8.375 -0.578125 C 7.976562 -0.359375 7.554688 -0.191406 7.109375 -0.078125 C 6.671875 0.0351562 6.242188 0.09375 5.828125 0.09375 C 5.066406 0.09375 4.367188 -0.0703125 3.734375 -0.40625 C 3.097656 -0.738281 2.550781 -1.171875 2.09375 -1.703125 C 1.644531 -2.234375 1.289062 -2.835938 1.03125 -3.515625 C 0.78125 -4.203125 0.65625 -4.898438 0.65625 -5.609375 Z M 0.65625 -5.609375 "/></g></g></g><g fill="#a0937d" fill-opacity="1"><g transform="translate(86.788766, 55.524672)"><g><path d="M 4.625 0.15625 C 4.03125 0.15625 3.488281 0.046875 3 -0.171875 C 2.507812 -0.398438 2.085938 -0.707031 1.734375 -1.09375 C 1.378906 -1.476562 1.101562 -1.921875 0.90625 -2.421875 C 0.707031 -2.929688 0.609375 -3.46875 0.609375 -4.03125 C 0.609375 -4.601562 0.707031 -5.140625 0.90625 -5.640625 C 1.113281 -6.148438 1.394531 -6.597656 1.75 -6.984375 C 2.101562 -7.367188 2.523438 -7.675781 3.015625 -7.90625 C 3.503906 -8.132812 4.039062 -8.25 4.625 -8.25 C 5.207031 -8.25 5.742188 -8.132812 6.234375 -7.90625 C 6.722656 -7.675781 7.144531 -7.367188 7.5 -6.984375 C 7.863281 -6.597656 8.144531 -6.148438 8.34375 -5.640625 C 8.550781 -5.140625 8.65625 -4.601562 8.65625 -4.03125 C 8.65625 -3.46875 8.554688 -2.929688 8.359375 -2.421875 C 8.160156 -1.921875 7.878906 -1.476562 7.515625 -1.09375 C 7.160156 -0.707031 6.738281 -0.398438 6.25 -0.171875 C 5.757812 0.046875 5.21875 0.15625 4.625 0.15625 Z M 1.6875 -4.015625 C 1.6875 -3.554688 1.757812 -3.128906 1.90625 -2.734375 C 2.0625 -2.347656 2.269531 -2.007812 2.53125 -1.71875 C 2.800781 -1.425781 3.113281 -1.195312 3.46875 -1.03125 C 3.832031 -0.863281 4.21875 -0.78125 4.625 -0.78125 C 5.03125 -0.78125 5.410156 -0.863281 5.765625 -1.03125 C 6.117188 -1.207031 6.429688 -1.441406 6.703125 -1.734375 C 6.972656 -2.023438 7.1875 -2.367188 7.34375 -2.765625 C 7.5 -3.160156 7.578125 -3.585938 7.578125 -4.046875 C 7.578125 -4.492188 7.5 -4.914062 7.34375 -5.3125 C 7.1875 -5.707031 6.972656 -6.050781 6.703125 -6.34375 C 6.429688 -6.644531 6.117188 -6.878906 5.765625 -7.046875 C 5.410156 -7.222656 5.03125 -7.3125 4.625 -7.3125 C 4.21875 -7.3125 3.835938 -7.222656 3.484375 -7.046875 C 3.128906 -6.878906 2.816406 -6.644531 2.546875 -6.34375 C 2.273438 -6.039062 2.0625 -5.691406 1.90625 -5.296875 C 1.757812 -4.898438 1.6875 -4.472656 1.6875 -4.015625 Z M 1.6875 -4.015625 "/></g></g></g><g fill="#a0937d" fill-opacity="1"><g transform="translate(96.050447, 55.524672)"><g><path d="M 5.3125 0.15625 C 4.625 0.15625 4.015625 -0.015625 3.484375 -0.359375 C 2.960938 -0.710938 2.539062 -1.15625 2.21875 -1.6875 L 2.21875 3.3125 L 1.171875 3.3125 L 1.171875 -8.109375 L 2.109375 -8.109375 L 2.109375 -6.53125 C 2.441406 -7.039062 2.875 -7.453125 3.40625 -7.765625 C 3.9375 -8.085938 4.515625 -8.25 5.140625 -8.25 C 5.691406 -8.25 6.203125 -8.128906 6.671875 -7.890625 C 7.140625 -7.660156 7.546875 -7.347656 7.890625 -6.953125 C 8.234375 -6.566406 8.5 -6.117188 8.6875 -5.609375 C 8.882812 -5.109375 8.984375 -4.585938 8.984375 -4.046875 C 8.984375 -3.472656 8.894531 -2.929688 8.71875 -2.421875 C 8.539062 -1.921875 8.285156 -1.476562 7.953125 -1.09375 C 7.628906 -0.707031 7.238281 -0.398438 6.78125 -0.171875 C 6.332031 0.046875 5.84375 0.15625 5.3125 0.15625 Z M 5.015625 -0.78125 C 5.453125 -0.78125 5.847656 -0.875 6.203125 -1.0625 C 6.554688 -1.25 6.859375 -1.492188 7.109375 -1.796875 C 7.367188 -2.097656 7.566406 -2.441406 7.703125 -2.828125 C 7.835938 -3.222656 7.90625 -3.628906 7.90625 -4.046875 C 7.90625 -4.484375 7.828125 -4.894531 7.671875 -5.28125 C 7.515625 -5.675781 7.300781 -6.023438 7.03125 -6.328125 C 6.757812 -6.628906 6.441406 -6.867188 6.078125 -7.046875 C 5.710938 -7.222656 5.316406 -7.3125 4.890625 -7.3125 C 4.617188 -7.3125 4.332031 -7.253906 4.03125 -7.140625 C 3.738281 -7.035156 3.460938 -6.890625 3.203125 -6.703125 C 2.953125 -6.523438 2.734375 -6.316406 2.546875 -6.078125 C 2.367188 -5.835938 2.257812 -5.582031 2.21875 -5.3125 L 2.21875 -2.8125 C 2.34375 -2.519531 2.5 -2.25 2.6875 -2 C 2.882812 -1.757812 3.101562 -1.546875 3.34375 -1.359375 C 3.59375 -1.179688 3.859375 -1.039062 4.140625 -0.9375 C 4.421875 -0.832031 4.710938 -0.78125 5.015625 -0.78125 Z M 5.015625 -0.78125 "/></g></g></g><g fill="#a0937d" fill-opacity="1"><g transform="translate(105.654582, 55.524672)"><g><path d="M 1.640625 2.484375 C 1.722656 2.492188 1.800781 2.5 1.875 2.5 C 1.945312 2.507812 2.019531 2.515625 2.09375 2.515625 C 2.28125 2.515625 2.425781 2.488281 2.53125 2.4375 C 2.644531 2.382812 2.753906 2.269531 2.859375 2.09375 C 2.960938 1.925781 3.078125 1.675781 3.203125 1.34375 C 3.335938 1.007812 3.523438 0.5625 3.765625 0 L 0.234375 -8.109375 L 1.328125 -8.109375 L 4.328125 -0.984375 L 7.109375 -8.109375 L 8.125 -8.109375 L 3.921875 2.34375 C 3.804688 2.644531 3.613281 2.90625 3.34375 3.125 C 3.082031 3.351562 2.722656 3.46875 2.265625 3.46875 C 2.160156 3.46875 2.0625 3.460938 1.96875 3.453125 C 1.882812 3.453125 1.773438 3.441406 1.640625 3.421875 Z M 1.640625 2.484375 "/></g></g></g><g fill="#a0937d" fill-opacity="1"><g transform="translate(114.091276, 55.524672)"><g><path d="M 11.375 -8.109375 L 12.421875 -8.109375 L 8.9375 0 L 8.0625 0 L 6.3125 -4.140625 L 4.59375 0 L 3.71875 0 L 0.234375 -8.109375 L 1.265625 -8.109375 L 4.21875 -1.09375 L 5.765625 -4.796875 L 4.375 -8.09375 L 5.265625 -8.09375 L 6.3125 -5.453125 L 7.375 -8.09375 L 8.28125 -8.09375 L 6.890625 -4.796875 L 8.4375 -1.09375 Z M 11.375 -8.109375 "/></g></g></g><g fill="#a0937d" fill-opacity="1"><g transform="translate(126.74631, 55.524672)"><g><path d="M 5.21875 -7.171875 C 4.5 -7.148438 3.875 -6.953125 3.34375 -6.578125 C 2.8125 -6.203125 2.4375 -5.691406 2.21875 -5.046875 L 2.21875 0 L 1.171875 0 L 1.171875 -8.109375 L 2.15625 -8.109375 L 2.15625 -6.15625 C 2.457031 -6.78125 2.863281 -7.269531 3.375 -7.625 C 3.882812 -7.976562 4.429688 -8.15625 5.015625 -8.15625 C 5.097656 -8.15625 5.164062 -8.148438 5.21875 -8.140625 Z M 5.21875 -7.171875 "/></g></g></g><g fill="#a0937d" fill-opacity="1"><g transform="translate(132.209928, 55.524672)"><g><path d="M 1.171875 0 L 1.171875 -8.109375 L 2.21875 -8.109375 L 2.21875 0 Z M 1.171875 -9.796875 L 1.171875 -11.359375 L 2.21875 -11.359375 L 2.21875 -9.796875 Z M 1.171875 -9.796875 "/></g></g></g><g fill="#a0937d" fill-opacity="1"><g transform="translate(135.603281, 55.524672)"><g><path d="M 5.0625 -0.390625 C 5 -0.359375 4.90625 -0.316406 4.78125 -0.265625 C 4.664062 -0.210938 4.53125 -0.160156 4.375 -0.109375 C 4.21875 -0.0546875 4.039062 -0.0078125 3.84375 0.03125 C 3.644531 0.0703125 3.4375 0.09375 3.21875 0.09375 C 2.988281 0.09375 2.769531 0.0625 2.5625 0 C 2.351562 -0.0625 2.171875 -0.15625 2.015625 -0.28125 C 1.867188 -0.414062 1.75 -0.582031 1.65625 -0.78125 C 1.5625 -0.976562 1.515625 -1.207031 1.515625 -1.46875 L 1.515625 -7.265625 L 0.390625 -7.265625 L 0.390625 -8.109375 L 1.515625 -8.109375 L 1.515625 -10.84375 L 2.5625 -10.84375 L 2.5625 -8.109375 L 4.4375 -8.109375 L 4.4375 -7.265625 L 2.5625 -7.265625 L 2.5625 -1.765625 C 2.582031 -1.460938 2.6875 -1.238281 2.875 -1.09375 C 3.070312 -0.957031 3.296875 -0.890625 3.546875 -0.890625 C 3.847656 -0.890625 4.113281 -0.9375 4.34375 -1.03125 C 4.570312 -1.132812 4.71875 -1.207031 4.78125 -1.25 Z M 5.0625 -0.390625 "/></g></g></g><g fill="#a0937d" fill-opacity="1"><g transform="translate(140.817837, 55.524672)"><g><path d="M 4.671875 0.15625 C 4.078125 0.15625 3.53125 0.046875 3.03125 -0.171875 C 2.539062 -0.398438 2.113281 -0.707031 1.75 -1.09375 C 1.394531 -1.488281 1.113281 -1.9375 0.90625 -2.4375 C 0.707031 -2.945312 0.609375 -3.492188 0.609375 -4.078125 C 0.609375 -4.648438 0.707031 -5.1875 0.90625 -5.6875 C 1.113281 -6.1875 1.394531 -6.625 1.75 -7 C 2.101562 -7.382812 2.53125 -7.6875 3.03125 -7.90625 C 3.53125 -8.132812 4.070312 -8.25 4.65625 -8.25 C 5.25 -8.25 5.789062 -8.132812 6.28125 -7.90625 C 6.769531 -7.6875 7.191406 -7.382812 7.546875 -7 C 7.898438 -6.613281 8.175781 -6.171875 8.375 -5.671875 C 8.570312 -5.179688 8.671875 -4.65625 8.671875 -4.09375 C 8.671875 -4.007812 8.671875 -3.925781 8.671875 -3.84375 C 8.671875 -3.757812 8.664062 -3.703125 8.65625 -3.671875 L 1.71875 -3.671875 C 1.75 -3.234375 1.847656 -2.832031 2.015625 -2.46875 C 2.179688 -2.101562 2.398438 -1.785156 2.671875 -1.515625 C 2.941406 -1.242188 3.25 -1.03125 3.59375 -0.875 C 3.945312 -0.726562 4.320312 -0.65625 4.71875 -0.65625 C 4.976562 -0.65625 5.234375 -0.691406 5.484375 -0.765625 C 5.742188 -0.835938 5.984375 -0.9375 6.203125 -1.0625 C 6.421875 -1.1875 6.617188 -1.335938 6.796875 -1.515625 C 6.972656 -1.703125 7.109375 -1.898438 7.203125 -2.109375 L 8.125 -1.875 C 8 -1.570312 7.820312 -1.296875 7.59375 -1.046875 C 7.363281 -0.804688 7.097656 -0.59375 6.796875 -0.40625 C 6.492188 -0.226562 6.160156 -0.09375 5.796875 0 C 5.441406 0.101562 5.066406 0.15625 4.671875 0.15625 Z M 7.65625 -4.484375 C 7.625 -4.921875 7.519531 -5.316406 7.34375 -5.671875 C 7.175781 -6.023438 6.957031 -6.332031 6.6875 -6.59375 C 6.425781 -6.851562 6.125 -7.054688 5.78125 -7.203125 C 5.4375 -7.347656 5.066406 -7.421875 4.671875 -7.421875 C 4.273438 -7.421875 3.898438 -7.347656 3.546875 -7.203125 C 3.191406 -7.054688 2.878906 -6.851562 2.609375 -6.59375 C 2.347656 -6.332031 2.140625 -6.019531 1.984375 -5.65625 C 1.828125 -5.300781 1.734375 -4.910156 1.703125 -4.484375 Z M 7.65625 -4.484375 "/></g></g></g><g fill="#a0937d" fill-opacity="1"><g transform="translate(149.954993, 55.524672)"><g><path d="M 5.21875 -7.171875 C 4.5 -7.148438 3.875 -6.953125 3.34375 -6.578125 C 2.8125 -6.203125 2.4375 -5.691406 2.21875 -5.046875 L 2.21875 0 L 1.171875 0 L 1.171875 -8.109375 L 2.15625 -8.109375 L 2.15625 -6.15625 C 2.457031 -6.78125 2.863281 -7.269531 3.375 -7.625 C 3.882812 -7.976562 4.429688 -8.15625 5.015625 -8.15625 C 5.097656 -8.15625 5.164062 -8.148438 5.21875 -8.140625 Z M 5.21875 -7.171875 "/></g></g></g><g fill="#a0937d" fill-opacity="1"><g transform="translate(155.418611, 55.524672)"><g/></g></g><g fill="#a0937d" fill-opacity="1"><g transform="translate(159.387901, 55.524672)"><g><path d="M 1.34375 2.015625 L 1.34375 -12.0625 L 2.25 -12.0625 L 2.25 2.015625 Z M 1.34375 2.015625 "/></g></g></g><g fill="#a0937d" fill-opacity="1"><g transform="translate(162.983615, 55.524672)"><g/></g></g><g fill="#a0937d" fill-opacity="1"><g transform="translate(166.952906, 55.524672)"><g><path d="M 0.65625 -5.609375 C 0.65625 -6.265625 0.769531 -6.921875 1 -7.578125 C 1.238281 -8.242188 1.578125 -8.832031 2.015625 -9.34375 C 2.460938 -9.863281 3.015625 -10.285156 3.671875 -10.609375 C 4.328125 -10.941406 5.066406 -11.109375 5.890625 -11.109375 C 6.878906 -11.109375 7.722656 -10.882812 8.421875 -10.4375 C 9.128906 -9.988281 9.644531 -9.410156 9.96875 -8.703125 L 9.125 -8.171875 C 8.945312 -8.535156 8.726562 -8.84375 8.46875 -9.09375 C 8.21875 -9.34375 7.945312 -9.539062 7.65625 -9.6875 C 7.363281 -9.84375 7.0625 -9.953125 6.75 -10.015625 C 6.4375 -10.085938 6.132812 -10.125 5.84375 -10.125 C 5.175781 -10.125 4.585938 -9.988281 4.078125 -9.71875 C 3.566406 -9.457031 3.132812 -9.109375 2.78125 -8.671875 C 2.4375 -8.234375 2.175781 -7.738281 2 -7.1875 C 1.832031 -6.644531 1.75 -6.097656 1.75 -5.546875 C 1.75 -4.929688 1.851562 -4.34375 2.0625 -3.78125 C 2.269531 -3.21875 2.554688 -2.722656 2.921875 -2.296875 C 3.296875 -1.867188 3.734375 -1.523438 4.234375 -1.265625 C 4.742188 -1.015625 5.289062 -0.890625 5.875 -0.890625 C 6.1875 -0.890625 6.503906 -0.925781 6.828125 -1 C 7.160156 -1.082031 7.476562 -1.207031 7.78125 -1.375 C 8.09375 -1.550781 8.378906 -1.765625 8.640625 -2.015625 C 8.898438 -2.265625 9.117188 -2.570312 9.296875 -2.9375 L 10.1875 -2.46875 C 10.007812 -2.0625 9.757812 -1.695312 9.4375 -1.375 C 9.125 -1.0625 8.769531 -0.796875 8.375 -0.578125 C 7.976562 -0.359375 7.554688 -0.191406 7.109375 -0.078125 C 6.671875 0.0351562 6.242188 0.09375 5.828125 0.09375 C 5.066406 0.09375 4.367188 -0.0703125 3.734375 -0.40625 C 3.097656 -0.738281 2.550781 -1.171875 2.09375 -1.703125 C 1.644531 -2.234375 1.289062 -2.835938 1.03125 -3.515625 C 0.78125 -4.203125 0.65625 -4.898438 0.65625 -5.609375 Z M 0.65625 -5.609375 "/></g></g></g><g fill="#a0937d" fill-opacity="1"><g transform="translate(177.631079, 55.524672)"><g><path d="M 4.625 0.15625 C 4.03125 0.15625 3.488281 0.046875 3 -0.171875 C 2.507812 -0.398438 2.085938 -0.707031 1.734375 -1.09375 C 1.378906 -1.476562 1.101562 -1.921875 0.90625 -2.421875 C 0.707031 -2.929688 0.609375 -3.46875 0.609375 -4.03125 C 0.609375 -4.601562 0.707031 -5.140625 0.90625 -5.640625 C 1.113281 -6.148438 1.394531 -6.597656 1.75 -6.984375 C 2.101562 -7.367188 2.523438 -7.675781 3.015625 -7.90625 C 3.503906 -8.132812 4.039062 -8.25 4.625 -8.25 C 5.207031 -8.25 5.742188 -8.132812 6.234375 -7.90625 C 6.722656 -7.675781 7.144531 -7.367188 7.5 -6.984375 C 7.863281 -6.597656 8.144531 -6.148438 8.34375 -5.640625 C 8.550781 -5.140625 8.65625 -4.601562 8.65625 -4.03125 C 8.65625 -3.46875 8.554688 -2.929688 8.359375 -2.421875 C 8.160156 -1.921875 7.878906 -1.476562 7.515625 -1.09375 C 7.160156 -0.707031 6.738281 -0.398438 6.25 -0.171875 C 5.757812 0.046875 5.21875 0.15625 4.625 0.15625 Z M 1.6875 -4.015625 C 1.6875 -3.554688 1.757812 -3.128906 1.90625 -2.734375 C 2.0625 -2.347656 2.269531 -2.007812 2.53125 -1.71875 C 2.800781 -1.425781 3.113281 -1.195312 3.46875 -1.03125 C 3.832031 -0.863281 4.21875 -0.78125 4.625 -0.78125 C 5.03125 -0.78125 5.410156 -0.863281 5.765625 -1.03125 C 6.117188 -1.207031 6.429688 -1.441406 6.703125 -1.734375 C 6.972656 -2.023438 7.1875 -2.367188 7.34375 -2.765625 C 7.5 -3.160156 7.578125 -3.585938 7.578125 -4.046875 C 7.578125 -4.492188 7.5 -4.914062 7.34375 -5.3125 C 7.1875 -5.707031 6.972656 -6.050781 6.703125 -6.34375 C 6.429688 -6.644531 6.117188 -6.878906 5.765625 -7.046875 C 5.410156 -7.222656 5.03125 -7.3125 4.625 -7.3125 C 4.21875 -7.3125 3.835938 -7.222656 3.484375 -7.046875 C 3.128906 -6.878906 2.816406 -6.644531 2.546875 -6.34375 C 2.273438 -6.039062 2.0625 -5.691406 1.90625 -5.296875 C 1.757812 -4.898438 1.6875 -4.472656 1.6875 -4.015625 Z M 1.6875 -4.015625 "/></g></g></g><g fill="#a0937d" fill-opacity="1"><g transform="translate(186.892761, 55.524672)"><g><path d="M 3.203125 0.15625 C 2.816406 0.15625 2.460938 0.09375 2.140625 -0.03125 C 1.816406 -0.164062 1.53125 -0.347656 1.28125 -0.578125 C 1.039062 -0.804688 0.851562 -1.070312 0.71875 -1.375 C 0.582031 -1.6875 0.515625 -2.015625 0.515625 -2.359375 C 0.515625 -2.710938 0.597656 -3.039062 0.765625 -3.34375 C 0.929688 -3.644531 1.164062 -3.90625 1.46875 -4.125 C 1.769531 -4.34375 2.125 -4.507812 2.53125 -4.625 C 2.945312 -4.75 3.40625 -4.8125 3.90625 -4.8125 C 4.320312 -4.8125 4.742188 -4.773438 5.171875 -4.703125 C 5.597656 -4.628906 5.972656 -4.523438 6.296875 -4.390625 L 6.296875 -5.125 C 6.296875 -5.832031 6.09375 -6.394531 5.6875 -6.8125 C 5.289062 -7.238281 4.734375 -7.453125 4.015625 -7.453125 C 3.597656 -7.453125 3.171875 -7.367188 2.734375 -7.203125 C 2.296875 -7.035156 1.859375 -6.796875 1.421875 -6.484375 L 1.046875 -7.1875 C 2.085938 -7.894531 3.101562 -8.25 4.09375 -8.25 C 5.113281 -8.25 5.910156 -7.960938 6.484375 -7.390625 C 7.066406 -6.816406 7.359375 -6.03125 7.359375 -5.03125 L 7.359375 -1.375 C 7.359375 -1.082031 7.488281 -0.9375 7.75 -0.9375 L 7.75 0 C 7.570312 0.03125 7.4375 0.046875 7.34375 0.046875 C 7.070312 0.046875 6.859375 -0.0195312 6.703125 -0.15625 C 6.554688 -0.289062 6.476562 -0.476562 6.46875 -0.71875 L 6.4375 -1.359375 C 6.0625 -0.867188 5.59375 -0.492188 5.03125 -0.234375 C 4.46875 0.0234375 3.859375 0.15625 3.203125 0.15625 Z M 3.453125 -0.65625 C 4.003906 -0.65625 4.507812 -0.757812 4.96875 -0.96875 C 5.4375 -1.175781 5.785156 -1.453125 6.015625 -1.796875 C 6.109375 -1.890625 6.175781 -1.988281 6.21875 -2.09375 C 6.269531 -2.195312 6.296875 -2.296875 6.296875 -2.390625 L 6.296875 -3.71875 C 5.953125 -3.851562 5.585938 -3.957031 5.203125 -4.03125 C 4.828125 -4.101562 4.441406 -4.140625 4.046875 -4.140625 C 3.296875 -4.140625 2.6875 -3.984375 2.21875 -3.671875 C 1.757812 -3.359375 1.53125 -2.945312 1.53125 -2.4375 C 1.53125 -2.1875 1.578125 -1.953125 1.671875 -1.734375 C 1.773438 -1.523438 1.910156 -1.335938 2.078125 -1.171875 C 2.242188 -1.015625 2.445312 -0.890625 2.6875 -0.796875 C 2.925781 -0.703125 3.179688 -0.65625 3.453125 -0.65625 Z M 3.453125 -0.65625 "/></g></g></g><g fill="#a0937d" fill-opacity="1"><g transform="translate(195.376144, 55.524672)"><g><path d="M 0.609375 -4.078125 C 0.609375 -4.648438 0.707031 -5.1875 0.90625 -5.6875 C 1.101562 -6.195312 1.378906 -6.640625 1.734375 -7.015625 C 2.085938 -7.398438 2.515625 -7.703125 3.015625 -7.921875 C 3.515625 -8.140625 4.066406 -8.25 4.671875 -8.25 C 5.441406 -8.25 6.109375 -8.070312 6.671875 -7.71875 C 7.242188 -7.375 7.675781 -6.90625 7.96875 -6.3125 L 6.9375 -5.984375 C 6.707031 -6.398438 6.390625 -6.722656 5.984375 -6.953125 C 5.578125 -7.191406 5.125 -7.3125 4.625 -7.3125 C 4.207031 -7.3125 3.816406 -7.226562 3.453125 -7.0625 C 3.097656 -6.894531 2.785156 -6.664062 2.515625 -6.375 C 2.253906 -6.09375 2.050781 -5.753906 1.90625 -5.359375 C 1.757812 -4.972656 1.6875 -4.546875 1.6875 -4.078125 C 1.6875 -3.617188 1.757812 -3.1875 1.90625 -2.78125 C 2.0625 -2.375 2.273438 -2.023438 2.546875 -1.734375 C 2.816406 -1.441406 3.128906 -1.207031 3.484375 -1.03125 C 3.847656 -0.863281 4.234375 -0.78125 4.640625 -0.78125 C 4.898438 -0.78125 5.15625 -0.816406 5.40625 -0.890625 C 5.664062 -0.960938 5.898438 -1.0625 6.109375 -1.1875 C 6.328125 -1.320312 6.515625 -1.472656 6.671875 -1.640625 C 6.828125 -1.804688 6.9375 -1.976562 7 -2.15625 L 8.046875 -1.859375 C 7.929688 -1.566406 7.765625 -1.296875 7.546875 -1.046875 C 7.328125 -0.804688 7.066406 -0.59375 6.765625 -0.40625 C 6.472656 -0.226562 6.148438 -0.09375 5.796875 0 C 5.441406 0.101562 5.070312 0.15625 4.6875 0.15625 C 4.09375 0.15625 3.546875 0.046875 3.046875 -0.171875 C 2.546875 -0.398438 2.113281 -0.707031 1.75 -1.09375 C 1.394531 -1.488281 1.113281 -1.9375 0.90625 -2.4375 C 0.707031 -2.945312 0.609375 -3.492188 0.609375 -4.078125 Z M 0.609375 -4.078125 "/></g></g></g><g fill="#a0937d" fill-opacity="1"><g transform="translate(203.921796, 55.524672)"><g><path d="M 7.984375 0 L 6.921875 0 L 6.921875 -4.53125 C 6.921875 -5.445312 6.757812 -6.132812 6.4375 -6.59375 C 6.125 -7.050781 5.664062 -7.28125 5.0625 -7.28125 C 4.757812 -7.28125 4.457031 -7.21875 4.15625 -7.09375 C 3.863281 -6.976562 3.585938 -6.816406 3.328125 -6.609375 C 3.066406 -6.398438 2.835938 -6.15625 2.640625 -5.875 C 2.453125 -5.601562 2.3125 -5.300781 2.21875 -4.96875 L 2.21875 0 L 1.171875 0 L 1.171875 -11.359375 L 2.21875 -11.359375 L 2.21875 -6.265625 C 2.539062 -6.878906 2.988281 -7.363281 3.5625 -7.71875 C 4.132812 -8.070312 4.753906 -8.25 5.421875 -8.25 C 5.878906 -8.25 6.269531 -8.160156 6.59375 -7.984375 C 6.914062 -7.816406 7.179688 -7.578125 7.390625 -7.265625 C 7.597656 -6.960938 7.75 -6.597656 7.84375 -6.171875 C 7.9375 -5.742188 7.984375 -5.269531 7.984375 -4.75 Z M 7.984375 0 "/></g></g></g></svg>