<svg xmlns="http://www.w3.org/2000/svg" xmlns:xlink="http://www.w3.org/1999/xlink" width="100" zoomAndPan="magnify" viewBox="0 0 75 74.999997" height="100" preserveAspectRatio="xMidYMid meet" version="1.0"><path fill="#c48975" d="M 37.5 0 C 16.808594 0 0 16.808594 0 37.5 C 0 58.191406 16.808594 75 37.5 75 C 58.191406 75 75 58.191406 75 37.5 C 75 16.808594 58.191406 0 37.5 0 Z M 37.5 3.261719 C 56.429688 3.261719 71.738281 18.570312 71.738281 37.5 C 71.738281 56.429688 56.429688 71.738281 37.5 71.738281 C 18.570312 71.738281 3.261719 56.429688 3.261719 37.5 C 3.261719 18.570312 18.570312 3.261719 37.5 3.261719 Z M 25.316406 22.824219 L 35.242188 37.40625 L 25.195312 52.175781 L 29.34375 52.175781 L 37.175781 40.601562 L 37.5 40.601562 L 45.191406 52.175781 L 49.582031 52.175781 L 39.636719 37.574219 L 49.804688 22.824219 L 45.636719 22.824219 L 37.785156 34.5 L 37.457031 34.5 L 29.730469 22.824219 Z M 25.316406 22.824219 " fill-opacity="1" fill-rule="nonzero"/></svg>