<svg xmlns="http://www.w3.org/2000/svg" xmlns:xlink="http://www.w3.org/1999/xlink" width="100" zoomAndPan="magnify" viewBox="0 0 75 74.999997" height="100" preserveAspectRatio="xMidYMid meet" version="1.0"><path fill="#c48975" d="M 37.5 0 C 16.832031 0 0 16.832031 0 37.5 C 0 58.167969 16.832031 75 37.5 75 C 58.167969 75 75 58.167969 75 37.5 C 75 16.832031 58.167969 0 37.5 0 Z M 37.5 71.667969 C 18.667969 71.667969 3.332031 56.332031 3.332031 37.5 C 3.332031 18.667969 18.667969 3.332031 37.5 3.332031 C 56.332031 3.332031 71.667969 18.667969 71.667969 37.5 C 71.667969 56.332031 56.332031 71.667969 37.5 71.667969 Z M 58.332031 37.5 C 58.332031 38.417969 57.582031 39.167969 56.667969 39.167969 L 18.332031 39.167969 C 17.417969 39.167969 16.667969 38.417969 16.667969 37.5 C 16.667969 36.582031 17.417969 35.832031 18.332031 35.832031 L 56.667969 35.832031 C 57.582031 35.832031 58.332031 36.582031 58.332031 37.5 Z M 58.332031 22.5 C 58.332031 23.417969 57.582031 24.167969 56.667969 24.167969 L 18.332031 24.167969 C 17.417969 24.167969 16.667969 23.417969 16.667969 22.5 C 16.667969 21.582031 17.417969 20.832031 18.332031 20.832031 L 56.667969 20.832031 C 57.582031 20.832031 58.332031 21.582031 58.332031 22.5 Z M 58.332031 52.5 C 58.332031 53.417969 57.582031 54.167969 56.667969 54.167969 L 18.332031 54.167969 C 17.417969 54.167969 16.667969 53.417969 16.667969 52.5 C 16.667969 51.582031 17.417969 50.832031 18.332031 50.832031 L 56.667969 50.832031 C 57.582031 50.832031 58.332031 51.582031 58.332031 52.5 Z M 58.332031 52.5 " fill-opacity="1" fill-rule="nonzero"/></svg>