<svg xmlns="http://www.w3.org/2000/svg" xmlns:xlink="http://www.w3.org/1999/xlink" width="100" zoomAndPan="magnify" viewBox="0 0 75 74.999997" height="100" preserveAspectRatio="xMidYMid meet" version="1.0"><defs><clipPath id="54f9328549"><path d="M 16.574219 16.574219 L 58.574219 16.574219 L 58.574219 58.574219 L 16.574219 58.574219 Z M 16.574219 16.574219 " clip-rule="nonzero"/></clipPath></defs><g clip-path="url(#54f9328549)"><path fill="#010101" d="M 37.566406 20.363281 C 43.171875 20.363281 43.832031 20.378906 46.050781 20.480469 C 48.09375 20.574219 49.207031 20.914062 49.953125 21.207031 C 50.929688 21.585938 51.628906 22.046875 52.363281 22.78125 C 53.097656 23.519531 53.550781 24.21875 53.9375 25.191406 C 54.222656 25.929688 54.5625 27.042969 54.664062 29.09375 C 54.765625 31.3125 54.785156 31.976562 54.785156 37.578125 C 54.785156 43.183594 54.765625 43.847656 54.664062 46.0625 C 54.570312 48.105469 54.230469 49.21875 53.9375 49.964844 C 53.558594 50.941406 53.097656 51.640625 52.363281 52.378906 C 51.628906 53.113281 50.929688 53.5625 49.953125 53.949219 C 49.214844 54.234375 48.101562 54.578125 46.050781 54.679688 C 43.832031 54.777344 43.171875 54.796875 37.566406 54.796875 C 31.960938 54.796875 31.300781 54.777344 29.082031 54.679688 C 27.039062 54.585938 25.925781 54.246094 25.179688 53.949219 C 24.203125 53.574219 23.503906 53.113281 22.769531 52.378906 C 22.03125 51.640625 21.582031 50.941406 21.195312 49.964844 C 20.910156 49.230469 20.570312 48.117188 20.46875 46.0625 C 20.367188 43.847656 20.347656 43.183594 20.347656 37.578125 C 20.347656 31.976562 20.367188 31.3125 20.46875 29.09375 C 20.558594 27.050781 20.898438 25.9375 21.195312 25.191406 C 21.570312 24.21875 22.03125 23.519531 22.769531 22.78125 C 23.503906 22.046875 24.203125 21.59375 25.179688 21.207031 C 25.914062 20.921875 27.027344 20.582031 29.082031 20.480469 C 31.300781 20.378906 31.960938 20.363281 37.566406 20.363281 M 37.566406 16.578125 C 31.859375 16.578125 31.152344 16.605469 28.90625 16.707031 C 26.671875 16.808594 25.140625 17.167969 23.808594 17.683594 C 22.429688 18.21875 21.257812 18.933594 20.089844 20.105469 C 18.929688 21.273438 18.214844 22.441406 17.679688 23.820312 C 17.164062 25.15625 16.804688 26.683594 16.703125 28.921875 C 16.601562 31.15625 16.574219 31.875 16.574219 37.570312 C 16.574219 43.277344 16.601562 43.984375 16.703125 46.230469 C 16.804688 48.464844 17.164062 49.992188 17.679688 51.328125 C 18.214844 52.707031 18.929688 53.878906 20.097656 55.046875 C 21.269531 56.214844 22.4375 56.933594 23.816406 57.464844 C 25.152344 57.980469 26.679688 58.339844 28.914062 58.441406 C 31.152344 58.542969 31.871094 58.570312 37.574219 58.570312 C 43.28125 58.570312 43.988281 58.542969 46.234375 58.441406 C 48.472656 58.339844 50 57.980469 51.332031 57.464844 C 52.714844 56.933594 53.882812 56.214844 55.050781 55.046875 C 56.21875 53.878906 56.9375 52.707031 57.46875 51.328125 C 57.984375 49.992188 58.34375 48.464844 58.445312 46.230469 C 58.546875 43.992188 58.574219 43.277344 58.574219 37.570312 C 58.574219 31.863281 58.546875 31.15625 58.445312 28.910156 C 58.34375 26.675781 57.984375 25.148438 57.46875 23.8125 C 56.9375 22.433594 56.21875 21.261719 55.050781 20.09375 C 53.882812 18.925781 52.714844 18.207031 51.332031 17.675781 C 50 17.160156 48.472656 16.800781 46.234375 16.699219 C 43.988281 16.605469 43.269531 16.578125 37.566406 16.578125 " fill-opacity="1" fill-rule="nonzero"/></g><path fill="#010101" d="M 37.566406 26.792969 C 31.613281 26.792969 26.789062 31.617188 26.789062 37.570312 C 26.789062 43.523438 31.621094 48.355469 37.574219 48.355469 C 43.527344 48.355469 48.359375 43.535156 48.359375 37.570312 C 48.351562 31.617188 43.519531 26.792969 37.566406 26.792969 M 37.566406 44.574219 C 33.699219 44.574219 30.570312 41.445312 30.570312 37.578125 C 30.570312 33.714844 33.699219 30.585938 37.566406 30.585938 C 41.429688 30.585938 44.558594 33.714844 44.558594 37.578125 C 44.570312 41.433594 41.429688 44.574219 37.566406 44.574219 " fill-opacity="1" fill-rule="nonzero"/><path fill="#010101" d="M 51.296875 26.371094 C 51.296875 27.761719 50.164062 28.890625 48.773438 28.890625 C 47.386719 28.890625 46.253906 27.761719 46.253906 26.371094 C 46.253906 24.980469 47.386719 23.847656 48.773438 23.847656 C 50.164062 23.847656 51.296875 24.972656 51.296875 26.371094 " fill-opacity="1" fill-rule="nonzero"/></svg>