<svg xmlns="http://www.w3.org/2000/svg" xmlns:xlink="http://www.w3.org/1999/xlink" width="1080" zoomAndPan="magnify" viewBox="0 0 810 809.999993" height="1080" preserveAspectRatio="xMidYMid meet" version="1.0"><defs><clipPath id="f517508972"><path d="M 90.75 90.75 L 719.25 90.75 L 719.25 719.25 L 90.75 719.25 Z M 90.75 90.75 " clip-rule="nonzero"/></clipPath></defs><g clip-path="url(#f517508972)"><path fill="#ffffff" d="M 677.351562 635.449219 L 593.550781 635.449219 L 593.550781 247.875 C 593.550781 230.527344 579.472656 216.449219 562.125 216.449219 L 350.824219 216.449219 C 342.4375 216.449219 334.539062 219.722656 328.605469 225.65625 L 225.65625 328.605469 C 219.722656 334.539062 216.449219 342.4375 216.449219 350.824219 L 216.449219 635.449219 L 132.648438 635.449219 C 121.109375 635.449219 111.699219 626.039062 111.699219 614.5 L 111.699219 195.5 L 698.300781 195.5 L 698.300781 614.5 C 698.300781 626.039062 688.890625 635.449219 677.351562 635.449219 Z M 252.210938 331.675781 L 331.675781 252.210938 L 331.675781 310.726562 C 331.675781 322.265625 322.265625 331.675781 310.726562 331.675781 Z M 572.601562 687.824219 C 572.601562 693.59375 567.894531 698.300781 562.125 698.300781 L 247.875 698.300781 C 242.105469 698.300781 237.398438 693.59375 237.398438 687.824219 L 237.398438 352.625 L 310.726562 352.625 C 333.84375 352.625 352.625 333.84375 352.625 310.726562 L 352.625 237.398438 L 562.125 237.398438 C 567.894531 237.398438 572.601562 242.105469 572.601562 247.875 Z M 132.648438 111.699219 L 677.351562 111.699219 C 688.890625 111.699219 698.300781 121.109375 698.300781 132.648438 L 698.300781 174.550781 L 111.699219 174.550781 L 111.699219 132.648438 C 111.699219 121.109375 121.109375 111.699219 132.648438 111.699219 Z M 677.351562 90.75 L 132.648438 90.75 C 109.53125 90.75 90.75 109.53125 90.75 132.648438 L 90.75 614.5 C 90.75 637.617188 109.53125 656.398438 132.648438 656.398438 L 216.449219 656.398438 L 216.449219 687.824219 C 216.449219 705.175781 230.527344 719.25 247.875 719.25 L 562.125 719.25 C 579.472656 719.25 593.550781 705.175781 593.550781 687.824219 L 593.550781 656.398438 L 677.351562 656.398438 C 700.46875 656.398438 719.25 637.617188 719.25 614.5 L 719.25 132.648438 C 719.25 109.53125 700.46875 90.75 677.351562 90.75 " fill-opacity="1" fill-rule="nonzero"/></g><path fill="#ffffff" d="M 143.125 153.601562 L 153.601562 153.601562 C 159.371094 153.601562 164.074219 148.894531 164.074219 143.125 C 164.074219 137.355469 159.371094 132.648438 153.601562 132.648438 L 143.125 132.648438 C 137.355469 132.648438 132.648438 137.355469 132.648438 143.125 C 132.648438 148.894531 137.355469 153.601562 143.125 153.601562 " fill-opacity="1" fill-rule="nonzero"/><path fill="#ffffff" d="M 195.5 153.601562 L 205.976562 153.601562 C 211.746094 153.601562 216.449219 148.894531 216.449219 143.125 C 216.449219 137.355469 211.746094 132.648438 205.976562 132.648438 L 195.5 132.648438 C 189.730469 132.648438 185.023438 137.355469 185.023438 143.125 C 185.023438 148.894531 189.730469 153.601562 195.5 153.601562 " fill-opacity="1" fill-rule="nonzero"/><path fill="#ffffff" d="M 247.875 153.601562 L 258.351562 153.601562 C 264.121094 153.601562 268.824219 148.894531 268.824219 143.125 C 268.824219 137.355469 264.121094 132.648438 258.351562 132.648438 L 247.875 132.648438 C 242.105469 132.648438 237.398438 137.355469 237.398438 143.125 C 237.398438 148.894531 242.105469 153.601562 247.875 153.601562 " fill-opacity="1" fill-rule="nonzero"/><path fill="#ffffff" d="M 604.023438 153.601562 L 666.875 153.601562 C 672.644531 153.601562 677.351562 148.894531 677.351562 143.125 C 677.351562 137.355469 672.644531 132.648438 666.875 132.648438 L 604.023438 132.648438 C 598.253906 132.648438 593.550781 137.355469 593.550781 143.125 C 593.550781 148.894531 598.253906 153.601562 604.023438 153.601562 " fill-opacity="1" fill-rule="nonzero"/><path fill="#ffffff" d="M 520.226562 425.949219 L 289.773438 425.949219 C 284.003906 425.949219 279.300781 430.65625 279.300781 436.425781 C 279.300781 442.195312 284.003906 446.898438 289.773438 446.898438 L 520.226562 446.898438 C 525.996094 446.898438 530.699219 442.195312 530.699219 436.425781 C 530.699219 430.65625 525.996094 425.949219 520.226562 425.949219 " fill-opacity="1" fill-rule="nonzero"/><path fill="#ffffff" d="M 520.226562 363.101562 L 384.050781 363.101562 C 378.28125 363.101562 373.574219 367.804688 373.574219 373.574219 C 373.574219 379.34375 378.28125 384.050781 384.050781 384.050781 L 520.226562 384.050781 C 525.996094 384.050781 530.699219 379.34375 530.699219 373.574219 C 530.699219 367.804688 525.996094 363.101562 520.226562 363.101562 " fill-opacity="1" fill-rule="nonzero"/><path fill="#ffffff" d="M 520.226562 488.800781 L 289.773438 488.800781 C 284.003906 488.800781 279.300781 493.503906 279.300781 499.273438 C 279.300781 505.042969 284.003906 509.75 289.773438 509.75 L 520.226562 509.75 C 525.996094 509.75 530.699219 505.042969 530.699219 499.273438 C 530.699219 493.503906 525.996094 488.800781 520.226562 488.800781 " fill-opacity="1" fill-rule="nonzero"/><path fill="#ffffff" d="M 520.226562 551.648438 L 289.773438 551.648438 C 284.003906 551.648438 279.300781 556.355469 279.300781 562.125 C 279.300781 567.894531 284.003906 572.601562 289.773438 572.601562 L 520.226562 572.601562 C 525.996094 572.601562 530.699219 567.894531 530.699219 562.125 C 530.699219 556.355469 525.996094 551.648438 520.226562 551.648438 " fill-opacity="1" fill-rule="nonzero"/><path fill="#ffffff" d="M 520.226562 614.5 L 289.773438 614.5 C 284.003906 614.5 279.300781 619.207031 279.300781 624.976562 C 279.300781 630.746094 284.003906 635.449219 289.773438 635.449219 L 520.226562 635.449219 C 525.996094 635.449219 530.699219 630.746094 530.699219 624.976562 C 530.699219 619.207031 525.996094 614.5 520.226562 614.5 " fill-opacity="1" fill-rule="nonzero"/></svg>