<svg xmlns="http://www.w3.org/2000/svg" xmlns:xlink="http://www.w3.org/1999/xlink" width="1080" zoomAndPan="magnify" viewBox="0 0 810 809.999993" height="1080" preserveAspectRatio="xMidYMid meet" version="1.0"><defs><clipPath id="5906bf21f9"><path d="M 59 93 L 751 93 L 751 719.496094 L 59 719.496094 Z M 59 93 " clip-rule="nonzero"/></clipPath></defs><g clip-path="url(#5906bf21f9)"><path fill="#ffffff" d="M 699.507812 719.414062 L 111.386719 719.414062 C 83.011719 719.414062 59.503906 695.917969 59.503906 667.558594 L 59.503906 145.359375 C 59.503906 116.597656 83.011719 93.507812 111.386719 93.507812 L 699.507812 93.507812 C 727.882812 93.507812 750.984375 116.597656 750.984375 145.359375 L 750.984375 667.558594 C 750.984375 695.917969 727.882812 719.414062 699.507812 719.414062 Z M 111.386719 109.710938 C 91.929688 109.710938 75.714844 125.511719 75.714844 145.359375 L 75.714844 667.558594 C 75.714844 687.003906 91.929688 703.210938 111.386719 703.210938 L 699.507812 703.210938 C 718.964844 703.210938 734.773438 687.003906 734.773438 667.558594 L 734.773438 145.359375 C 734.773438 125.511719 718.964844 109.710938 699.507812 109.710938 Z M 111.386719 109.710938 " fill-opacity="1" fill-rule="evenodd"/></g><path fill="#ffffff" d="M 742.878906 253.527344 L 67.609375 253.527344 C 57.070312 253.527344 57.070312 237.324219 67.609375 237.324219 L 742.878906 237.324219 C 753.820312 237.324219 753.820312 253.527344 742.878906 253.527344 Z M 742.878906 253.527344 " fill-opacity="1" fill-rule="evenodd"/><path fill="#ffffff" d="M 165.699219 174.933594 L 121.113281 174.933594 C 110.167969 174.933594 110.167969 158.730469 121.113281 158.730469 L 165.699219 158.730469 C 176.238281 158.730469 176.238281 174.933594 165.699219 174.933594 Z M 165.699219 174.933594 " fill-opacity="1" fill-rule="evenodd"/><path fill="#ffffff" d="M 258.921875 174.933594 L 214.335938 174.933594 C 203.394531 174.933594 203.394531 158.730469 214.335938 158.730469 L 258.921875 158.730469 C 269.867188 158.730469 269.460938 174.933594 258.921875 174.933594 Z M 258.921875 174.933594 " fill-opacity="1" fill-rule="evenodd"/><path fill="#ffffff" d="M 352.148438 174.933594 L 307.5625 174.933594 C 296.617188 174.933594 296.617188 158.730469 307.5625 158.730469 L 352.148438 158.730469 C 362.683594 158.730469 363.089844 174.933594 352.148438 174.933594 Z M 352.148438 174.933594 " fill-opacity="1" fill-rule="evenodd"/><path fill="#ffffff" d="M 697.480469 219.09375 L 451.046875 219.09375 C 439.695312 219.09375 430.78125 209.773438 430.78125 198.835938 L 430.78125 148.195312 C 430.78125 137.257812 439.695312 128.347656 451.046875 128.347656 L 697.480469 128.347656 C 708.832031 128.347656 717.746094 137.257812 717.746094 148.195312 L 717.746094 198.835938 C 717.746094 209.773438 708.832031 219.09375 697.480469 219.09375 Z M 451.046875 144.144531 C 448.613281 144.144531 446.992188 146.171875 446.992188 148.195312 L 446.992188 198.835938 C 446.992188 200.863281 448.613281 202.484375 451.046875 202.484375 L 697.480469 202.484375 C 699.914062 202.484375 701.535156 200.863281 701.535156 198.835938 L 701.535156 148.195312 C 701.535156 146.171875 699.507812 144.144531 697.480469 144.144531 Z M 451.046875 144.144531 " fill-opacity="1" fill-rule="evenodd"/><path fill="#ffffff" d="M 669.109375 181.417969 L 479.011719 181.417969 C 468.472656 181.417969 468.472656 165.210938 479.011719 165.210938 L 669.109375 165.210938 C 679.648438 165.210938 679.648438 181.417969 669.109375 181.417969 Z M 669.109375 181.417969 " fill-opacity="1" fill-rule="evenodd"/><path fill="#ffffff" d="M 405.242188 253.527344 C 400.785156 253.527344 397.136719 249.882812 397.136719 245.425781 L 397.136719 101.609375 C 397.136719 91.074219 413.351562 91.074219 413.351562 101.609375 L 413.351562 245.425781 C 413.351562 249.882812 409.703125 253.527344 405.242188 253.527344 Z M 405.242188 253.527344 " fill-opacity="1" fill-rule="evenodd"/><path fill="#ffffff" d="M 194.882812 399.371094 L 164.886719 399.371094 C 160.429688 399.371094 156.78125 395.722656 156.78125 391.269531 L 156.78125 326.449219 C 156.78125 321.992188 160.429688 318.347656 164.886719 318.347656 L 194.882812 318.347656 C 245.546875 318.347656 245.546875 399.371094 194.882812 399.371094 Z M 172.992188 383.164062 C 195.691406 383.164062 216.769531 387.21875 216.769531 356.429688 C 216.769531 344.273438 207.042969 334.550781 194.882812 334.550781 L 172.992188 334.550781 Z M 172.992188 383.164062 " fill-opacity="1" fill-rule="evenodd"/><path fill="#ffffff" d="M 194.882812 464.1875 L 164.886719 464.1875 C 160.429688 464.1875 156.78125 460.542969 156.78125 456.085938 L 156.78125 391.269531 C 156.78125 386.8125 160.429688 383.164062 164.886719 383.164062 L 194.882812 383.164062 C 245.546875 383.164062 245.546875 464.1875 194.882812 464.1875 Z M 172.992188 447.984375 C 195.691406 447.984375 216.769531 452.035156 216.769531 421.246094 C 216.769531 409.09375 207.042969 399.371094 194.882812 399.371094 L 172.992188 399.371094 Z M 172.992188 447.984375 " fill-opacity="1" fill-rule="evenodd"/><path fill="#ffffff" d="M 339.988281 464.1875 L 269.054688 464.1875 C 264.597656 464.1875 260.949219 460.542969 260.949219 456.085938 L 260.949219 326.449219 C 260.949219 315.917969 277.160156 315.917969 277.160156 326.449219 L 277.160156 447.984375 L 339.988281 447.984375 C 350.527344 447.984375 350.527344 464.1875 339.988281 464.1875 Z M 339.988281 464.1875 " fill-opacity="1" fill-rule="evenodd"/><path fill="#ffffff" d="M 426.726562 464.1875 C 398.757812 464.1875 376.0625 441.503906 376.0625 413.550781 L 376.0625 369.390625 C 376.0625 341.035156 398.757812 318.347656 426.726562 318.347656 C 454.695312 318.347656 477.390625 341.035156 477.390625 369.390625 L 477.390625 413.550781 C 477.390625 441.503906 454.695312 464.1875 426.726562 464.1875 Z M 426.726562 334.550781 C 407.675781 334.550781 392.273438 349.945312 392.273438 368.988281 L 392.273438 413.144531 C 392.273438 458.921875 461.179688 458.921875 461.179688 413.144531 L 461.179688 368.988281 C 461.179688 349.945312 445.777344 334.550781 426.726562 334.550781 Z M 426.726562 334.550781 " fill-opacity="1" fill-rule="evenodd"/><path fill="#ffffff" d="M 578.316406 464.1875 C 538.191406 464.1875 505.359375 431.375 505.359375 391.269531 C 505.359375 328.476562 580.34375 295.253906 627.359375 337.386719 C 635.0625 344.679688 624.117188 356.429688 616.417969 349.539062 C 579.9375 316.726562 521.570312 342.25 521.570312 391.269531 C 521.570312 422.460938 547.105469 447.984375 578.316406 447.984375 C 609.527344 447.984375 635.0625 422.460938 635.0625 391.671875 C 635.0625 380.734375 651.273438 380.734375 651.273438 391.671875 C 650.871094 431.375 618.445312 464.1875 578.316406 464.1875 Z M 578.316406 464.1875 " fill-opacity="1" fill-rule="evenodd"/><path fill="#ffffff" d="M 643.167969 399.777344 L 583.992188 399.777344 C 573.453125 399.777344 573.453125 383.570312 583.992188 383.570312 L 643.167969 383.570312 C 653.707031 383.570312 653.707031 399.777344 643.167969 399.777344 Z M 643.167969 399.777344 " fill-opacity="1" fill-rule="evenodd"/><path fill="#ffffff" d="M 643.167969 522.121094 L 164.886719 522.121094 C 154.347656 522.121094 154.347656 505.917969 164.886719 505.917969 L 643.167969 505.917969 C 653.707031 505.917969 653.707031 522.121094 643.167969 522.121094 Z M 643.167969 522.121094 " fill-opacity="1" fill-rule="evenodd"/><path fill="#ffffff" d="M 643.167969 580.054688 L 164.886719 580.054688 C 154.347656 580.054688 154.347656 563.847656 164.886719 563.847656 L 643.167969 563.847656 C 653.707031 563.847656 653.707031 580.054688 643.167969 580.054688 Z M 643.167969 580.054688 " fill-opacity="1" fill-rule="evenodd"/><path fill="#ffffff" d="M 643.167969 638.390625 L 164.886719 638.390625 C 154.347656 638.390625 154.347656 622.1875 164.886719 622.1875 L 643.167969 622.1875 C 653.707031 622.1875 653.707031 638.390625 643.167969 638.390625 Z M 643.167969 638.390625 " fill-opacity="1" fill-rule="evenodd"/></svg>