<svg xmlns="http://www.w3.org/2000/svg" xmlns:xlink="http://www.w3.org/1999/xlink" width="1080" zoomAndPan="magnify" viewBox="0 0 810 809.999993" height="1080" preserveAspectRatio="xMidYMid meet" version="1.0"><defs><clipPath id="e3a5515a73"><path d="M 59 114.421875 L 374 114.421875 L 374 506 L 59 506 Z M 59 114.421875 " clip-rule="nonzero"/></clipPath><clipPath id="0ed748b2da"><path d="M 58 114.421875 L 753 114.421875 L 753 695.671875 L 58 695.671875 Z M 58 114.421875 " clip-rule="nonzero"/></clipPath></defs><path fill="#ffffff" d="M 569.785156 418.328125 L 660.851562 418.328125 C 666.8125 418.328125 671.691406 413.449219 671.691406 407.484375 C 671.691406 401.519531 666.8125 396.640625 660.851562 396.640625 L 575.746094 396.640625 C 574.121094 404.230469 571.953125 411.28125 569.785156 418.328125 Z M 569.785156 418.328125 " fill-opacity="1" fill-rule="nonzero"/><path fill="#ffffff" d="M 548.101562 461.699219 L 660.851562 461.699219 C 666.8125 461.699219 671.691406 456.820312 671.691406 450.855469 C 671.691406 444.890625 666.8125 440.011719 660.851562 440.011719 L 560.570312 440.011719 C 556.777344 447.601562 552.4375 454.652344 548.101562 461.699219 Z M 548.101562 461.699219 " fill-opacity="1" fill-rule="nonzero"/><path fill="#ffffff" d="M 506.90625 505.070312 L 660.851562 505.070312 C 666.8125 505.070312 671.691406 500.191406 671.691406 494.226562 C 671.691406 488.265625 666.8125 483.382812 660.851562 483.382812 L 530.757812 483.382812 C 523.710938 491.515625 515.578125 498.566406 506.90625 505.070312 Z M 506.90625 505.070312 " fill-opacity="1" fill-rule="nonzero"/><g clip-path="url(#e3a5515a73)"><path fill="#ffffff" d="M 80.851562 147.253906 C 80.851562 141.292969 85.730469 136.414062 91.691406 136.414062 L 362.71875 136.414062 C 368.683594 136.414062 373.5625 131.535156 373.5625 125.570312 C 373.5625 119.605469 368.683594 114.726562 362.71875 114.726562 L 91.691406 114.726562 C 73.804688 114.726562 59.167969 129.363281 59.167969 147.253906 L 59.167969 505.070312 L 80.851562 489.347656 Z M 80.851562 147.253906 " fill-opacity="1" fill-rule="nonzero"/></g><g clip-path="url(#0ed748b2da)"><path fill="#ffffff" d="M 720.476562 114.726562 L 429.390625 114.726562 C 410.421875 114.726562 395.242188 129.90625 395.242188 148.882812 L 395.242188 196.046875 C 305.261719 196.046875 232.625 268.695312 232.625 358.691406 C 232.625 393.390625 243.46875 425.375 261.898438 451.941406 L 247.261719 463.324219 L 227.746094 438.386719 C 220.160156 428.085938 204.980469 426.460938 195.222656 434.050781 L 65.671875 526.757812 C 60.792969 530.007812 59.710938 537.058594 62.960938 541.9375 C 66.214844 546.816406 73.261719 547.898438 78.140625 544.648438 L 207.691406 451.398438 C 208.234375 450.855469 209.316406 450.855469 209.859375 451.941406 L 264.066406 521.878906 C 264.066406 522.417969 264.609375 522.417969 264.609375 522.960938 C 264.609375 523.503906 264.609375 523.503906 264.066406 524.046875 L 62.960938 675.84375 C 58.085938 679.640625 57 686.144531 60.792969 691.027344 C 62.960938 693.738281 66.214844 695.363281 69.46875 695.363281 C 71.636719 695.363281 73.804688 694.820312 75.972656 693.195312 L 277.074219 541.394531 C 281.953125 537.597656 285.207031 532.175781 285.746094 525.671875 C 286.289062 519.707031 284.664062 513.203125 280.867188 508.324219 L 259.1875 480.675781 L 274.363281 468.746094 C 304.175781 501.277344 347 521.335938 394.160156 521.335938 C 484.140625 521.335938 556.777344 448.6875 556.777344 358.691406 C 556.777344 276.285156 495.523438 207.976562 415.839844 197.675781 L 415.839844 148.882812 C 415.839844 142.375 421.261719 136.414062 428.308594 136.414062 L 718.851562 136.414062 C 725.898438 136.414062 731.316406 141.835938 731.316406 148.882812 L 731.316406 536.515625 C 731.316406 543.019531 725.898438 548.984375 718.851562 548.984375 L 300.382812 548.984375 C 297.671875 552.777344 294.421875 556.03125 291.167969 558.742188 L 274.90625 570.128906 L 357.300781 570.128906 L 357.300781 608.078125 L 313.933594 608.078125 C 307.972656 608.078125 303.09375 612.957031 303.09375 618.921875 C 303.09375 624.882812 307.972656 629.761719 313.933594 629.761719 L 498.234375 629.761719 C 504.195312 629.761719 509.074219 624.882812 509.074219 618.921875 C 509.074219 612.957031 504.195312 608.078125 498.234375 608.078125 L 454.871094 608.078125 L 454.871094 570.128906 L 720.476562 570.128906 C 738.363281 570.128906 753 555.488281 753 537.597656 L 753 147.253906 C 753 129.363281 738.363281 114.726562 720.476562 114.726562 Z M 536.175781 358.691406 C 536.175781 436.21875 472.757812 499.648438 395.242188 499.648438 C 317.730469 499.648438 254.308594 436.21875 254.308594 358.691406 C 254.308594 281.164062 317.730469 217.734375 395.242188 217.734375 C 472.757812 217.734375 536.175781 281.164062 536.175781 358.691406 Z M 378.980469 608.078125 L 378.980469 570.128906 L 433.1875 570.128906 L 433.1875 608.078125 Z M 378.980469 608.078125 " fill-opacity="1" fill-rule="nonzero"/></g><path fill="#ffffff" d="M 387.652344 250.261719 C 345.375 258.9375 312.308594 292.007812 303.09375 334.296875 C 302.007812 340.257812 305.804688 345.679688 311.222656 347.308594 C 311.765625 347.308594 312.851562 347.308594 313.390625 347.308594 C 318.269531 347.308594 323.148438 344.054688 324.234375 338.632812 C 331.28125 304.476562 357.839844 277.914062 391.449219 270.863281 C 397.410156 269.78125 401.207031 263.816406 400.121094 257.851562 C 399.039062 252.972656 393.617188 249.179688 387.652344 250.261719 Z M 387.652344 250.261719 " fill-opacity="1" fill-rule="nonzero"/><path fill="#ffffff" d="M 319.355469 380.378906 C 319.355469 381.089844 319.285156 381.792969 319.148438 382.492188 C 319.007812 383.191406 318.800781 383.867188 318.53125 384.527344 C 318.257812 385.183594 317.921875 385.808594 317.527344 386.402344 C 317.132812 386.992188 316.683594 387.542969 316.179688 388.042969 C 315.675781 388.546875 315.128906 388.996094 314.535156 389.394531 C 313.945312 389.789062 313.320312 390.121094 312.664062 390.394531 C 312.003906 390.667969 311.328125 390.875 310.628906 391.011719 C 309.929688 391.152344 309.226562 391.21875 308.515625 391.21875 C 307.800781 391.21875 307.097656 391.152344 306.398438 391.011719 C 305.699219 390.875 305.023438 390.667969 304.367188 390.394531 C 303.707031 390.121094 303.082031 389.789062 302.492188 389.394531 C 301.898438 388.996094 301.351562 388.546875 300.847656 388.042969 C 300.34375 387.542969 299.894531 386.992188 299.5 386.402344 C 299.105469 385.808594 298.769531 385.183594 298.5 384.527344 C 298.226562 383.867188 298.019531 383.191406 297.882812 382.492188 C 297.742188 381.792969 297.671875 381.089844 297.671875 380.378906 C 297.671875 379.664062 297.742188 378.960938 297.882812 378.261719 C 298.019531 377.5625 298.226562 376.886719 298.5 376.226562 C 298.769531 375.570312 299.105469 374.945312 299.5 374.351562 C 299.894531 373.761719 300.34375 373.214844 300.847656 372.710938 C 301.351562 372.207031 301.898438 371.757812 302.492188 371.363281 C 303.082031 370.964844 303.707031 370.632812 304.367188 370.359375 C 305.023438 370.085938 305.699219 369.882812 306.398438 369.742188 C 307.097656 369.605469 307.800781 369.535156 308.515625 369.535156 C 309.226562 369.535156 309.929688 369.605469 310.628906 369.742188 C 311.328125 369.882812 312.003906 370.085938 312.664062 370.359375 C 313.320312 370.632812 313.945312 370.964844 314.535156 371.363281 C 315.128906 371.757812 315.675781 372.207031 316.179688 372.710938 C 316.683594 373.214844 317.132812 373.761719 317.527344 374.351562 C 317.921875 374.945312 318.257812 375.570312 318.53125 376.226562 C 318.800781 376.886719 319.007812 377.5625 319.148438 378.261719 C 319.285156 378.960938 319.355469 379.664062 319.355469 380.378906 Z M 319.355469 380.378906 " fill-opacity="1" fill-rule="nonzero"/><path fill="#ffffff" d="M 151.316406 179.785156 C 145.355469 179.785156 140.476562 184.664062 140.476562 190.628906 L 140.476562 277.371094 C 140.476562 283.332031 145.355469 288.214844 151.316406 288.214844 C 157.28125 288.214844 162.160156 283.332031 162.160156 277.371094 L 162.160156 201.46875 L 248.886719 201.46875 C 254.851562 201.46875 259.730469 196.589844 259.730469 190.628906 C 259.730469 184.664062 254.851562 179.785156 248.886719 179.785156 Z M 151.316406 179.785156 " fill-opacity="1" fill-rule="nonzero"/><path fill="#ffffff" d="M 579 374.957031 L 660.851562 374.957031 C 666.8125 374.957031 671.691406 370.078125 671.691406 364.113281 C 671.691406 358.148438 666.8125 353.269531 660.851562 353.269531 L 579.542969 353.269531 C 579.542969 354.898438 579.542969 357.066406 579.542969 358.691406 C 579.542969 364.113281 579 369.535156 579 374.957031 Z M 579 374.957031 " fill-opacity="1" fill-rule="nonzero"/><path fill="#ffffff" d="M 660.851562 331.585938 C 666.8125 331.585938 671.691406 326.707031 671.691406 320.742188 C 671.691406 314.777344 666.8125 309.898438 660.851562 309.898438 L 573.039062 309.898438 C 575.207031 316.945312 576.289062 323.996094 577.375 331.585938 Z M 660.851562 331.585938 " fill-opacity="1" fill-rule="nonzero"/><path fill="#ffffff" d="M 660.851562 288.214844 C 666.8125 288.214844 671.691406 283.332031 671.691406 277.371094 C 671.691406 271.40625 666.8125 266.527344 660.851562 266.527344 L 554.609375 266.527344 C 558.402344 273.574219 562.195312 280.625 565.449219 288.214844 Z M 660.851562 288.214844 " fill-opacity="1" fill-rule="nonzero"/><path fill="#ffffff" d="M 660.851562 244.839844 C 666.8125 244.839844 671.691406 239.960938 671.691406 234 C 671.691406 228.035156 666.8125 223.15625 660.851562 223.15625 L 519.914062 223.15625 C 526.960938 229.660156 534.007812 237.25 539.972656 244.839844 Z M 660.851562 244.839844 " fill-opacity="1" fill-rule="nonzero"/><path fill="#ffffff" d="M 671.691406 190.628906 C 671.691406 184.664062 666.8125 179.785156 660.851562 179.785156 L 487.390625 179.785156 C 481.429688 179.785156 476.550781 184.664062 476.550781 190.628906 C 476.550781 191.710938 476.550781 192.796875 477.09375 193.339844 C 481.972656 196.046875 486.851562 198.21875 491.1875 201.46875 L 660.851562 201.46875 C 666.8125 201.46875 671.691406 196.589844 671.691406 190.628906 Z M 671.691406 190.628906 " fill-opacity="1" fill-rule="nonzero"/></svg>